Remember Me*2010*[BluRay][720p][ENG, POL]

General information:
Country: USA
Release: 1 March 2010
Genre: Drama, Romance 
Director: Allen Coulter
Screenplay: Will Fetters, Jenny Lumet
Original Music: Marcelo Zarvos
Cinematography by: Jonathan Freeman  
Duration: 1h 52mn
Language: English, Polish
Subtitles: English, Polish
Rating: 7.8/10 - 9892 votes 

Cast:
Robert Pattinson  ...  Tyler Hawkins  
Caitlyn Rund  ...  Alyssa Craig (11 yrs) (as Caitlyn Paige Rund)  
Moisés Acevedo  ...  Mugger  
Emilie de Ravin  ...  Ally Craig  
Noel Rodriguez  ...  Mugger  
Kevin P. McCarthy  ...  Police Chief (as Kevin McCarthy)  
Chris Cooper  ...  Sgt. Neil Craig  
Athena Currey  ...  Toothbrush Girl  
Lena Olin  ...  Diane Hirsch  
Gregory Jbara  ...  Les Hirsch  
Ruby Jerins  ...  Caroline Hawkins  
Pierce Brosnan  ...  Charles Hawkins  
Angela Pietropinto  ...  Diner Waitress  
Tate Ellington  ...  Aidan Hall  
David Deblinger  ...  NYU Professor  

Plot:
A romantic drama centered on two new lovers: Tyler, whose parents have split in the wake of his brother's suicide, and Ally, who lives each day to the fullest since witnessing her mother's murder.

Specifications:
General
Format                           : Matroska
Overall bit rate                 : 6 023 Kbps

Video
Format                           : AVC
Format/Info                      : Advanced Video Codec
Format profile                   : High@L4.1
Format settings, CABAC           : Yes
Format settings, ReFrames        : 5 frames
Muxing mode                      : Container profile=Unknown@4.1
Codec ID                         : V_MPEG4/ISO/AVC
Bit rate                         : 4 068 Kbps
Width                            : 1 280 pixels
Height                           : 720 pixels
Display aspect ratio             : 16:9
Frame rate                       : 23.976 fps

Audio 1
Format                           : DTS
Format/Info                      : Digital Theater Systems
Codec ID                         : A_DTS
Bit rate mode                    : Constant
Bit rate                         : 1 510 Kbps
Channel(s)                       : 6 channels
Channel positions                : Front: L C R, Side: L R, LFE
Sampling rate                    : 48.0 KHz
Bit depth                        : 24 bits
Stream size                      : 1.18 GiB (25%)
Title                            : English_DTS

Audio 2
Format                           : AC-3
Format/Info                      : Audio Coding 3
Mode extension                   : CM (complete main)
Codec ID                         : A_AC3
Bit rate mode                    : Constant
Bit rate                         : 448 Kbps
Channel(s)                       : 6 channels
Channel positions                : Front: L C R, Side: L R, LFE
Sampling rate                    : 48.0 KHz
Bit depth                        : 16 bits
Stream size                      : 360 MiB (7%)
Title                            : Polish_AC3
Language                         : Polish

Text 1
Format                           : UTF-8
Codec ID                         : S_TEXT/UTF8
Codec ID/Info                    : UTF-8 Plain Text
Title                            : English_SUB

Text 2
Format                           : UTF-8
Codec ID                         : S_TEXT/UTF8
Codec ID/Info                    : UTF-8 Plain Text
Title                            : Polish_SUB
